<mxfile host="app.diagrams.net" modified="2024-03-26T02:46:50.030Z" agent="Mozilla/5.0 (Macintosh; Intel Mac OS X 10_15_7) AppleWebKit/537.36 (KHTML, like Gecko) Chrome/122.0.0.0 Safari/537.36" etag="x0paYB2-KkNApoEf3HzT" version="24.0.2" type="github">
  <diagram id="xxs9f7XkWUvfaM0idZEA" name="第 1 页">
    <mxGraphModel dx="942" dy="561" grid="1" gridSize="10" guides="1" tooltips="1" connect="1" arrows="1" fold="1" page="1" pageScale="1" pageWidth="1169" pageHeight="827" math="0" shadow="0">
      <root>
        <mxCell id="0" />
        <mxCell id="1" parent="0" />
        <mxCell id="eZbzr1Br7c3N-v60xn89-9" value="" style="ellipse;whiteSpace=wrap;html=1;aspect=fixed;fillColor=#666666;strokeColor=#666666;fontColor=#333333;" parent="1" vertex="1">
          <mxGeometry x="930" y="120" width="30" height="30" as="geometry" />
        </mxCell>
        <mxCell id="eZbzr1Br7c3N-v60xn89-13" value="Capsule Network" style="whiteSpace=wrap;html=1;" parent="1" vertex="1">
          <mxGeometry x="330" y="60" width="80" height="90" as="geometry" />
        </mxCell>
        <mxCell id="eZbzr1Br7c3N-v60xn89-14" value="Proxy Interest Extractor" style="whiteSpace=wrap;html=1;" parent="1" vertex="1">
          <mxGeometry x="335" y="367.5" width="80" height="75" as="geometry" />
        </mxCell>
        <mxCell id="eZbzr1Br7c3N-v60xn89-17" value="" style="html=1;shadow=0;dashed=0;align=center;verticalAlign=middle;shape=mxgraph.arrows2.arrow;dy=0.6;dx=40;notch=0;" parent="1" vertex="1">
          <mxGeometry x="420" y="77.50999999999999" width="80" height="40" as="geometry" />
        </mxCell>
        <mxCell id="eZbzr1Br7c3N-v60xn89-18" value="" style="html=1;shadow=0;dashed=0;align=center;verticalAlign=middle;shape=mxgraph.arrows2.arrow;dy=0.6;dx=40;notch=0;" parent="1" vertex="1">
          <mxGeometry x="430" y="382.5" width="80" height="45" as="geometry" />
        </mxCell>
        <mxCell id="eZbzr1Br7c3N-v60xn89-53" value="" style="group" parent="1" vertex="1" connectable="0">
          <mxGeometry x="4.999999999999995" y="57.514999999999986" width="72.19500000000001" height="371.24" as="geometry" />
        </mxCell>
        <mxCell id="eZbzr1Br7c3N-v60xn89-1" value="" style="ellipse;whiteSpace=wrap;html=1;aspect=fixed;fillColor=#e1d5e7;strokeColor=#9673a6;" parent="eZbzr1Br7c3N-v60xn89-53" vertex="1">
          <mxGeometry x="35.00000000000001" y="22.485000000000014" width="30" height="30" as="geometry" />
        </mxCell>
        <mxCell id="eZbzr1Br7c3N-v60xn89-2" value="" style="ellipse;whiteSpace=wrap;html=1;aspect=fixed;fillColor=#dae8fc;strokeColor=#6c8ebf;" parent="eZbzr1Br7c3N-v60xn89-53" vertex="1">
          <mxGeometry x="34.220000000000006" y="272.485" width="30" height="30" as="geometry" />
        </mxCell>
        <mxCell id="eZbzr1Br7c3N-v60xn89-3" value="" style="ellipse;whiteSpace=wrap;html=1;aspect=fixed;fillColor=#f8cecc;strokeColor=#b85450;" parent="eZbzr1Br7c3N-v60xn89-53" vertex="1">
          <mxGeometry x="35.00000000000001" y="72.48500000000001" width="30" height="30" as="geometry" />
        </mxCell>
        <mxCell id="eZbzr1Br7c3N-v60xn89-4" value="" style="ellipse;whiteSpace=wrap;html=1;aspect=fixed;fillColor=#fff2cc;strokeColor=#d6b656;" parent="eZbzr1Br7c3N-v60xn89-53" vertex="1">
          <mxGeometry x="34.220000000000006" y="122.48500000000001" width="30" height="30" as="geometry" />
        </mxCell>
        <mxCell id="eZbzr1Br7c3N-v60xn89-5" value="" style="ellipse;whiteSpace=wrap;html=1;aspect=fixed;fillColor=#ffe6cc;strokeColor=#d79b00;" parent="eZbzr1Br7c3N-v60xn89-53" vertex="1">
          <mxGeometry x="34.220000000000006" y="170.615" width="30" height="30" as="geometry" />
        </mxCell>
        <mxCell id="eZbzr1Br7c3N-v60xn89-6" value="" style="ellipse;whiteSpace=wrap;html=1;aspect=fixed;fillColor=#d5e8d4;strokeColor=#82b366;" parent="eZbzr1Br7c3N-v60xn89-53" vertex="1">
          <mxGeometry x="34.220000000000006" y="219.985" width="30" height="30" as="geometry" />
        </mxCell>
        <mxCell id="eZbzr1Br7c3N-v60xn89-8" value="" style="ellipse;whiteSpace=wrap;html=1;aspect=fixed;fillColor=#f5f5f5;fontColor=#333333;strokeColor=#666666;" parent="eZbzr1Br7c3N-v60xn89-53" vertex="1">
          <mxGeometry x="34.220000000000006" y="322.485" width="30" height="30" as="geometry" />
        </mxCell>
        <mxCell id="eZbzr1Br7c3N-v60xn89-15" value="User Behavior Sequence" style="text;html=1;align=center;verticalAlign=middle;resizable=0;points=[];autosize=1;strokeColor=none;fillColor=none;rotation=-90;" parent="eZbzr1Br7c3N-v60xn89-53" vertex="1">
          <mxGeometry x="-65" y="162.645" width="160" height="30" as="geometry" />
        </mxCell>
        <mxCell id="eZbzr1Br7c3N-v60xn89-118" value="" style="endArrow=classic;html=1;rounded=0;" parent="eZbzr1Br7c3N-v60xn89-53" edge="1">
          <mxGeometry width="50" height="50" relative="1" as="geometry">
            <mxPoint x="65" y="136.985" as="sourcePoint" />
            <mxPoint x="95" y="136.985" as="targetPoint" />
          </mxGeometry>
        </mxCell>
        <mxCell id="eZbzr1Br7c3N-v60xn89-54" value="" style="group" parent="1" vertex="1" connectable="0">
          <mxGeometry x="500" y="55" width="140" height="100" as="geometry" />
        </mxCell>
        <mxCell id="eZbzr1Br7c3N-v60xn89-40" value="Capsule Weight" style="text;html=1;align=center;verticalAlign=middle;resizable=0;points=[];autosize=1;strokeColor=none;fillColor=none;container=0;" parent="eZbzr1Br7c3N-v60xn89-54" vertex="1">
          <mxGeometry x="14" y="5" width="110" height="30" as="geometry" />
        </mxCell>
        <mxCell id="eZbzr1Br7c3N-v60xn89-141" value="" style="group" parent="eZbzr1Br7c3N-v60xn89-54" vertex="1" connectable="0">
          <mxGeometry x="9" y="44.989999999999995" width="120" height="30" as="geometry" />
        </mxCell>
        <mxCell id="eZbzr1Br7c3N-v60xn89-137" value="" style="whiteSpace=wrap;html=1;aspect=fixed;fillColor=#99CCFF;" parent="eZbzr1Br7c3N-v60xn89-141" vertex="1">
          <mxGeometry width="30" height="30" as="geometry" />
        </mxCell>
        <mxCell id="eZbzr1Br7c3N-v60xn89-138" value="" style="whiteSpace=wrap;html=1;aspect=fixed;fillColor=#99FF99;" parent="eZbzr1Br7c3N-v60xn89-141" vertex="1">
          <mxGeometry x="30" width="30" height="30" as="geometry" />
        </mxCell>
        <mxCell id="eZbzr1Br7c3N-v60xn89-139" value="" style="whiteSpace=wrap;html=1;aspect=fixed;fillColor=#FFFF99;" parent="eZbzr1Br7c3N-v60xn89-141" vertex="1">
          <mxGeometry x="60" width="30" height="30" as="geometry" />
        </mxCell>
        <mxCell id="eZbzr1Br7c3N-v60xn89-140" value="" style="whiteSpace=wrap;html=1;aspect=fixed;fillColor=#FF9999;" parent="eZbzr1Br7c3N-v60xn89-141" vertex="1">
          <mxGeometry x="90" width="30" height="30" as="geometry" />
        </mxCell>
        <mxCell id="eZbzr1Br7c3N-v60xn89-142" value="" style="endArrow=classic;html=1;rounded=0;" parent="eZbzr1Br7c3N-v60xn89-54" edge="1">
          <mxGeometry width="50" height="50" relative="1" as="geometry">
            <mxPoint x="69.5" y="74.99000000000001" as="sourcePoint" />
            <mxPoint x="69.5" y="114.99000000000001" as="targetPoint" />
            <Array as="points">
              <mxPoint x="69.5" y="104.99000000000001" />
            </Array>
          </mxGeometry>
        </mxCell>
        <mxCell id="eZbzr1Br7c3N-v60xn89-55" value="" style="group" parent="1" vertex="1" connectable="0">
          <mxGeometry x="520" y="367.5" width="120" height="70" as="geometry" />
        </mxCell>
        <mxCell id="eZbzr1Br7c3N-v60xn89-51" value="" style="rounded=0;whiteSpace=wrap;html=1;fillColor=#FFCCE6;fontColor=#ffffff;strokeColor=default;direction=west;flipH=0;flipV=1;" parent="eZbzr1Br7c3N-v60xn89-55" vertex="1">
          <mxGeometry y="40" width="120" height="30" as="geometry" />
        </mxCell>
        <mxCell id="eZbzr1Br7c3N-v60xn89-52" value="Proxy Interest&lt;div&gt;Embeddings&lt;/div&gt;" style="text;html=1;align=center;verticalAlign=middle;resizable=0;points=[];autosize=1;strokeColor=none;fillColor=none;" parent="eZbzr1Br7c3N-v60xn89-55" vertex="1">
          <mxGeometry x="10" width="100" height="40" as="geometry" />
        </mxCell>
        <mxCell id="eZbzr1Br7c3N-v60xn89-56" value="" style="endArrow=classic;html=1;rounded=0;" parent="1" edge="1">
          <mxGeometry width="50" height="50" relative="1" as="geometry">
            <mxPoint x="590" y="370" as="sourcePoint" />
            <mxPoint x="590" y="280" as="targetPoint" />
          </mxGeometry>
        </mxCell>
        <mxCell id="eZbzr1Br7c3N-v60xn89-57" value="Weighted" style="text;html=1;align=center;verticalAlign=middle;resizable=0;points=[];autosize=1;strokeColor=none;fillColor=none;" parent="1" vertex="1">
          <mxGeometry x="520" y="310" width="70" height="30" as="geometry" />
        </mxCell>
        <mxCell id="eZbzr1Br7c3N-v60xn89-58" value="" style="group" parent="1" vertex="1" connectable="0">
          <mxGeometry x="505" y="170" width="150" height="100" as="geometry" />
        </mxCell>
        <mxCell id="eZbzr1Br7c3N-v60xn89-59" value="Multi-Interest&lt;div&gt;Embeddings&lt;/div&gt;" style="text;html=1;align=center;verticalAlign=middle;resizable=0;points=[];autosize=1;strokeColor=none;fillColor=none;container=0;" parent="eZbzr1Br7c3N-v60xn89-58" vertex="1">
          <mxGeometry x="25" width="90" height="40" as="geometry" />
        </mxCell>
        <mxCell id="eZbzr1Br7c3N-v60xn89-60" value="" style="rounded=0;whiteSpace=wrap;html=1;fillColor=#99CCFF;fontColor=#ffffff;strokeColor=default;direction=west;flipH=0;flipV=1;container=0;" parent="eZbzr1Br7c3N-v60xn89-58" vertex="1">
          <mxGeometry y="40" width="120" height="30" as="geometry" />
        </mxCell>
        <mxCell id="eZbzr1Br7c3N-v60xn89-61" value="" style="rounded=0;whiteSpace=wrap;html=1;fillColor=#99FF99;fontColor=#ffffff;strokeColor=default;direction=west;flipH=0;flipV=1;container=0;" parent="eZbzr1Br7c3N-v60xn89-58" vertex="1">
          <mxGeometry x="10" y="50" width="120" height="30" as="geometry" />
        </mxCell>
        <mxCell id="eZbzr1Br7c3N-v60xn89-62" value="" style="rounded=0;whiteSpace=wrap;html=1;fillColor=#FF9999;strokeColor=default;direction=west;flipH=0;flipV=1;container=0;" parent="eZbzr1Br7c3N-v60xn89-58" vertex="1">
          <mxGeometry x="20" y="60" width="120" height="30" as="geometry" />
        </mxCell>
        <mxCell id="eZbzr1Br7c3N-v60xn89-63" value="" style="rounded=0;whiteSpace=wrap;html=1;fillColor=#FFFF99;strokeColor=default;direction=west;flipH=0;flipV=1;container=0;" parent="eZbzr1Br7c3N-v60xn89-58" vertex="1">
          <mxGeometry x="30" y="70" width="120" height="30" as="geometry" />
        </mxCell>
        <mxCell id="eZbzr1Br7c3N-v60xn89-99" value="" style="ellipse;whiteSpace=wrap;html=1;aspect=fixed;" parent="1" vertex="1">
          <mxGeometry x="990" y="513.5" width="25" height="25" as="geometry" />
        </mxCell>
        <mxCell id="eZbzr1Br7c3N-v60xn89-100" value="" style="whiteSpace=wrap;html=1;aspect=fixed;" parent="1" vertex="1">
          <mxGeometry x="992.5" y="546" width="20" height="20" as="geometry" />
        </mxCell>
        <mxCell id="eZbzr1Br7c3N-v60xn89-101" value="Item ID" style="text;html=1;align=center;verticalAlign=middle;resizable=0;points=[];autosize=1;strokeColor=none;fillColor=none;" parent="1" vertex="1">
          <mxGeometry x="1015" y="510" width="60" height="30" as="geometry" />
        </mxCell>
        <mxCell id="eZbzr1Br7c3N-v60xn89-102" value="Category ID" style="text;html=1;align=center;verticalAlign=middle;resizable=0;points=[];autosize=1;strokeColor=none;fillColor=none;" parent="1" vertex="1">
          <mxGeometry x="1012.5" y="541" width="90" height="30" as="geometry" />
        </mxCell>
        <mxCell id="eZbzr1Br7c3N-v60xn89-103" value="Embedding Layer" style="rounded=1;whiteSpace=wrap;html=1;arcSize=50;direction=west;rotation=-90;" parent="1" vertex="1">
          <mxGeometry x="-75" y="235" width="370" height="20" as="geometry" />
        </mxCell>
        <mxCell id="eZbzr1Br7c3N-v60xn89-111" value="" style="endArrow=classic;html=1;rounded=0;" parent="1" edge="1">
          <mxGeometry width="50" height="50" relative="1" as="geometry">
            <mxPoint x="70" y="97.00999999999999" as="sourcePoint" />
            <mxPoint x="100" y="97.00999999999999" as="targetPoint" />
          </mxGeometry>
        </mxCell>
        <mxCell id="eZbzr1Br7c3N-v60xn89-116" value="" style="endArrow=classic;html=1;rounded=0;" parent="1" edge="1">
          <mxGeometry width="50" height="50" relative="1" as="geometry">
            <mxPoint x="70" y="149" as="sourcePoint" />
            <mxPoint x="100" y="149" as="targetPoint" />
          </mxGeometry>
        </mxCell>
        <mxCell id="eZbzr1Br7c3N-v60xn89-119" value="" style="endArrow=classic;html=1;rounded=0;" parent="1" edge="1">
          <mxGeometry width="50" height="50" relative="1" as="geometry">
            <mxPoint x="70" y="242.64" as="sourcePoint" />
            <mxPoint x="100" y="242.64" as="targetPoint" />
          </mxGeometry>
        </mxCell>
        <mxCell id="eZbzr1Br7c3N-v60xn89-120" value="" style="endArrow=classic;html=1;rounded=0;" parent="1" edge="1">
          <mxGeometry width="50" height="50" relative="1" as="geometry">
            <mxPoint x="70" y="289.5" as="sourcePoint" />
            <mxPoint x="100" y="289.5" as="targetPoint" />
          </mxGeometry>
        </mxCell>
        <mxCell id="eZbzr1Br7c3N-v60xn89-121" value="" style="endArrow=classic;html=1;rounded=0;" parent="1" edge="1">
          <mxGeometry width="50" height="50" relative="1" as="geometry">
            <mxPoint x="70" y="341.99" as="sourcePoint" />
            <mxPoint x="100" y="341.99" as="targetPoint" />
          </mxGeometry>
        </mxCell>
        <mxCell id="eZbzr1Br7c3N-v60xn89-122" value="" style="endArrow=classic;html=1;rounded=0;" parent="1" edge="1">
          <mxGeometry width="50" height="50" relative="1" as="geometry">
            <mxPoint x="70" y="392" as="sourcePoint" />
            <mxPoint x="100" y="392" as="targetPoint" />
          </mxGeometry>
        </mxCell>
        <mxCell id="eZbzr1Br7c3N-v60xn89-128" value="" style="group" parent="1" vertex="1" connectable="0">
          <mxGeometry x="190" y="83.13" width="20" height="320" as="geometry" />
        </mxCell>
        <mxCell id="eZbzr1Br7c3N-v60xn89-65" value="" style="whiteSpace=wrap;html=1;aspect=fixed;fillColor=#e1d5e7;strokeColor=#9673a6;container=0;" parent="eZbzr1Br7c3N-v60xn89-128" vertex="1">
          <mxGeometry width="20" height="20" as="geometry" />
        </mxCell>
        <mxCell id="eZbzr1Br7c3N-v60xn89-79" value="" style="whiteSpace=wrap;html=1;aspect=fixed;fillColor=#f8cecc;strokeColor=#b85450;container=0;" parent="eZbzr1Br7c3N-v60xn89-128" vertex="1">
          <mxGeometry y="49.99000000000001" width="20" height="20" as="geometry" />
        </mxCell>
        <mxCell id="eZbzr1Br7c3N-v60xn89-83" value="" style="whiteSpace=wrap;html=1;aspect=fixed;fillColor=#dae8fc;strokeColor=#6c8ebf;container=0;" parent="eZbzr1Br7c3N-v60xn89-128" vertex="1">
          <mxGeometry y="249.99" width="20" height="20" as="geometry" />
        </mxCell>
        <mxCell id="eZbzr1Br7c3N-v60xn89-86" value="" style="whiteSpace=wrap;html=1;aspect=fixed;fillColor=#fff2cc;strokeColor=#d6b656;container=0;" parent="eZbzr1Br7c3N-v60xn89-128" vertex="1">
          <mxGeometry y="97.5" width="20" height="20" as="geometry" />
        </mxCell>
        <mxCell id="eZbzr1Br7c3N-v60xn89-89" value="" style="whiteSpace=wrap;html=1;aspect=fixed;fillColor=#d5e8d4;strokeColor=#82b366;container=0;" parent="eZbzr1Br7c3N-v60xn89-128" vertex="1">
          <mxGeometry y="197.5" width="20" height="20" as="geometry" />
        </mxCell>
        <mxCell id="eZbzr1Br7c3N-v60xn89-92" value="" style="whiteSpace=wrap;html=1;aspect=fixed;fillColor=#ffe6cc;strokeColor=#d79b00;container=0;" parent="eZbzr1Br7c3N-v60xn89-128" vertex="1">
          <mxGeometry y="148.13" width="20" height="20" as="geometry" />
        </mxCell>
        <mxCell id="eZbzr1Br7c3N-v60xn89-95" value="" style="whiteSpace=wrap;html=1;aspect=fixed;fillColor=#f5f5f5;strokeColor=#666666;fontColor=#333333;container=0;" parent="eZbzr1Br7c3N-v60xn89-128" vertex="1">
          <mxGeometry y="300" width="20" height="20" as="geometry" />
        </mxCell>
        <mxCell id="eZbzr1Br7c3N-v60xn89-129" value="" style="group" parent="1" vertex="1" connectable="0">
          <mxGeometry x="140" y="80" width="25" height="325" as="geometry" />
        </mxCell>
        <mxCell id="eZbzr1Br7c3N-v60xn89-64" value="" style="ellipse;whiteSpace=wrap;html=1;aspect=fixed;fillColor=#e1d5e7;strokeColor=#9673a6;container=0;" parent="eZbzr1Br7c3N-v60xn89-129" vertex="1">
          <mxGeometry width="25" height="25" as="geometry" />
        </mxCell>
        <mxCell id="eZbzr1Br7c3N-v60xn89-78" value="" style="ellipse;whiteSpace=wrap;html=1;aspect=fixed;fillColor=#f8cecc;strokeColor=#b85450;container=0;" parent="eZbzr1Br7c3N-v60xn89-129" vertex="1">
          <mxGeometry y="49.99000000000001" width="25" height="25" as="geometry" />
        </mxCell>
        <mxCell id="eZbzr1Br7c3N-v60xn89-82" value="" style="ellipse;whiteSpace=wrap;html=1;aspect=fixed;fillColor=#dae8fc;strokeColor=#6c8ebf;container=0;" parent="eZbzr1Br7c3N-v60xn89-129" vertex="1">
          <mxGeometry y="249.99" width="25" height="25" as="geometry" />
        </mxCell>
        <mxCell id="eZbzr1Br7c3N-v60xn89-85" value="" style="ellipse;whiteSpace=wrap;html=1;aspect=fixed;fillColor=#fff2cc;strokeColor=#d6b656;container=0;" parent="eZbzr1Br7c3N-v60xn89-129" vertex="1">
          <mxGeometry y="97.5" width="25" height="25" as="geometry" />
        </mxCell>
        <mxCell id="eZbzr1Br7c3N-v60xn89-88" value="" style="ellipse;whiteSpace=wrap;html=1;aspect=fixed;fillColor=#d5e8d4;strokeColor=#82b366;container=0;" parent="eZbzr1Br7c3N-v60xn89-129" vertex="1">
          <mxGeometry y="197.5" width="25" height="25" as="geometry" />
        </mxCell>
        <mxCell id="eZbzr1Br7c3N-v60xn89-91" value="" style="ellipse;whiteSpace=wrap;html=1;aspect=fixed;fillColor=#ffe6cc;strokeColor=#d79b00;container=0;" parent="eZbzr1Br7c3N-v60xn89-129" vertex="1">
          <mxGeometry y="148.13" width="25" height="25" as="geometry" />
        </mxCell>
        <mxCell id="eZbzr1Br7c3N-v60xn89-94" value="" style="ellipse;whiteSpace=wrap;html=1;aspect=fixed;fillColor=#f5f5f5;strokeColor=#666666;fontColor=#333333;container=0;" parent="eZbzr1Br7c3N-v60xn89-129" vertex="1">
          <mxGeometry y="300" width="25" height="25" as="geometry" />
        </mxCell>
        <mxCell id="eZbzr1Br7c3N-v60xn89-143" value="" style="endArrow=classic;html=1;rounded=0;" parent="1" edge="1">
          <mxGeometry width="50" height="50" relative="1" as="geometry">
            <mxPoint x="670" y="255" as="sourcePoint" />
            <mxPoint x="730" y="310" as="targetPoint" />
          </mxGeometry>
        </mxCell>
        <mxCell id="2vjCo2IcNoUnDBzv9IQX-26" value="" style="group" vertex="1" connectable="0" parent="1">
          <mxGeometry x="730" y="290" width="120" height="30" as="geometry" />
        </mxCell>
        <mxCell id="2vjCo2IcNoUnDBzv9IQX-22" value="" style="group" vertex="1" connectable="0" parent="2vjCo2IcNoUnDBzv9IQX-26">
          <mxGeometry width="30" height="30" as="geometry" />
        </mxCell>
        <mxCell id="2vjCo2IcNoUnDBzv9IQX-8" value="" style="rounded=0;whiteSpace=wrap;html=1;strokeWidth=0.3;strokeColor=default;" vertex="1" parent="2vjCo2IcNoUnDBzv9IQX-22">
          <mxGeometry width="30" height="30" as="geometry" />
        </mxCell>
        <mxCell id="2vjCo2IcNoUnDBzv9IQX-7" value="" style="whiteSpace=wrap;html=1;fillColor=#99CCFF;strokeColor=none;strokeWidth=0.5;" vertex="1" parent="2vjCo2IcNoUnDBzv9IQX-22">
          <mxGeometry x="0.25" y="27" width="29.5" height="3" as="geometry" />
        </mxCell>
        <mxCell id="2vjCo2IcNoUnDBzv9IQX-23" value="" style="group" vertex="1" connectable="0" parent="2vjCo2IcNoUnDBzv9IQX-26">
          <mxGeometry x="30" width="30" height="30" as="geometry" />
        </mxCell>
        <mxCell id="2vjCo2IcNoUnDBzv9IQX-18" value="" style="rounded=0;whiteSpace=wrap;html=1;strokeWidth=0.3;strokeColor=default;" vertex="1" parent="2vjCo2IcNoUnDBzv9IQX-23">
          <mxGeometry width="30" height="30" as="geometry" />
        </mxCell>
        <mxCell id="2vjCo2IcNoUnDBzv9IQX-19" value="" style="whiteSpace=wrap;html=1;fillColor=#99FF99;strokeColor=none;strokeWidth=0.5;" vertex="1" parent="2vjCo2IcNoUnDBzv9IQX-23">
          <mxGeometry x="0.25" y="25" width="29.5" height="5" as="geometry" />
        </mxCell>
        <mxCell id="2vjCo2IcNoUnDBzv9IQX-24" value="" style="group" vertex="1" connectable="0" parent="2vjCo2IcNoUnDBzv9IQX-26">
          <mxGeometry x="60" width="30" height="30" as="geometry" />
        </mxCell>
        <mxCell id="2vjCo2IcNoUnDBzv9IQX-16" value="" style="rounded=0;whiteSpace=wrap;html=1;strokeWidth=0.3;strokeColor=default;" vertex="1" parent="2vjCo2IcNoUnDBzv9IQX-24">
          <mxGeometry width="30" height="30" as="geometry" />
        </mxCell>
        <mxCell id="2vjCo2IcNoUnDBzv9IQX-17" value="" style="whiteSpace=wrap;html=1;fillColor=#FF9999;strokeColor=none;strokeWidth=0.5;" vertex="1" parent="2vjCo2IcNoUnDBzv9IQX-24">
          <mxGeometry x="0.25" y="15" width="29.5" height="15" as="geometry" />
        </mxCell>
        <mxCell id="2vjCo2IcNoUnDBzv9IQX-25" value="" style="group" vertex="1" connectable="0" parent="2vjCo2IcNoUnDBzv9IQX-26">
          <mxGeometry x="90" width="30" height="30" as="geometry" />
        </mxCell>
        <mxCell id="2vjCo2IcNoUnDBzv9IQX-20" value="" style="rounded=0;whiteSpace=wrap;html=1;strokeWidth=0.3;strokeColor=default;" vertex="1" parent="2vjCo2IcNoUnDBzv9IQX-25">
          <mxGeometry width="30" height="30" as="geometry" />
        </mxCell>
        <mxCell id="2vjCo2IcNoUnDBzv9IQX-21" value="" style="whiteSpace=wrap;html=1;fillColor=#FFFF99;strokeColor=none;strokeWidth=0.5;" vertex="1" parent="2vjCo2IcNoUnDBzv9IQX-25">
          <mxGeometry x="0.25" y="18" width="29.5" height="12" as="geometry" />
        </mxCell>
        <mxCell id="2vjCo2IcNoUnDBzv9IQX-27" value="Interest Distribution" style="text;html=1;align=center;verticalAlign=middle;resizable=0;points=[];autosize=1;strokeColor=none;fillColor=none;" vertex="1" parent="1">
          <mxGeometry x="725" y="258" width="130" height="30" as="geometry" />
        </mxCell>
      </root>
    </mxGraphModel>
  </diagram>
</mxfile>
